Coordinates
version=1
nRows=32
nColumns=22
inDegrees=yes

Units are S.I. units (second, meters, Newtons, ...)
If the header above contains a line with 'inDegrees', this indicates whether rotational values are in degrees (yes) or radians (no).

endheader
time	pelvis_tilt	pelvis_list	pelvis_rotation	pelvis_tx	pelvis_ty	pelvis_tz	hip_flexion_r	hip_adduction_r	hip_rotation_r	knee_angle_r	ankle_angle_r	subtalar_angle_r	hip_flexion_l	hip_adduction_l	hip_rotation_l	knee_angle_l	ankle_angle_l	subtalar_angle_l	lumbar_extension	lumbar_bending	lumbar_rotation
      3.11000000	     -3.00770906	     -3.09648315	     -5.26117453	     -1.03315740	      0.93310252	      0.00747826	     -4.74843415	      7.21728741	     -5.30505870	     -7.10397823	     15.02600732	      3.74783404	     29.45731306	    -10.85144006	     -5.50563133	    -27.68704648	      3.39042875	      2.72263692	    -12.99337239	      1.29544533	      3.95812656
      3.12000000	     -2.79118275	     -2.83263807	     -5.35416516	     -1.03662398	      0.93445487	      0.00832503	     -4.62688919	      7.01132179	     -5.24513954	     -7.25129685	     14.71426453	      3.15657744	     29.06501735	    -10.67908721	     -5.55445407	    -28.74687384	      3.95163414	      2.35797976	    -13.11003890	      1.09471129	      3.63365959
      3.13000000	     -2.58753915	     -2.57037601	     -5.45081011	     -1.03995529	      0.93566490	      0.00910643	     -4.51047734	      6.79854300	     -5.17172328	     -7.38354643	     14.45175064	      2.54633068	     28.67586897	    -10.49008253	     -5.55675286	    -29.87618878	      4.42231137	      1.95405174	    -13.19661366	      0.89311181	      3.31251651
      3.14000000	     -2.39056828	     -2.35196751	     -5.56010147	     -1.04322001	      0.93674105	      0.00978016	     -4.37403255	      6.61415017	     -5.08660738	     -7.56142088	     14.22235867	      2.05207363	     28.27277256	    -10.30742487	     -5.43654403	    -31.04832351	      4.90345229	      1.63560721	    -13.28323216	      0.75263648	      3.01606858
      3.15000000	     -2.21056409	     -2.17226649	     -5.67671651	     -1.04641429	      0.93766672	      0.01035757	     -4.21878277	      6.45757521	     -4.99308090	     -7.75912240	     14.03046150	      1.63218093	     27.87201880	    -10.13110095	     -5.22989654	    -32.26357899	      5.35980615	      1.36370061	    -13.35635990	      0.66588658	      2.74521353
      3.16000000	     -2.04985916	     -2.03548045	     -5.79794005	     -1.04951657	      0.93843628	      0.01082756	     -4.04552705	      6.33188647	     -4.92050943	     -7.97369616	     13.87448360	      1.42008066	     27.47218204	     -9.96722867	     -4.96007157	    -33.51257656	      5.82165380	      1.27032569	    -13.41141696	      0.63810816	      2.52306895
      3.17000000	     -1.90943666	     -1.94896788	     -5.90818442	     -1.05254436	      0.93905620	      0.01121808	     -3.86342899	      6.25601389	     -4.84512675	     -8.18543649	     13.74410570	      1.16576478	     27.08280868	     -9.82901815	     -4.65399109	    -34.79265508	      6.24958690	      1.14142162	    -13.45154392	      0.67201625	      2.30781941
      3.18000000	     -1.80287988	     -1.90209900	     -6.01135489	     -1.05550560	      0.93951403	      0.01152496	     -3.65704570	      6.22005273	     -4.77330239	     -8.39171002	     13.63911658	      0.90294507	     26.71604341	     -9.71335711	     -4.34073605	    -36.09338931	      6.64613812	      1.00736178	    -13.46142058	      0.75782447	      2.12266490
      3.19000000	     -1.75607602	     -1.88736403	     -6.10135828	     -1.05840885	      0.93978422	      0.01173974	     -3.39990369	      6.22248514	     -4.68386413	     -8.58861036	     13.53494099	      0.55478577	     26.40399648	     -9.61739530	     -4.03390091	    -37.40756579	      6.99569969	      0.81665412	    -13.41137457	      0.89359060	      1.92931459
      3.20000000	     -1.66561014	     -1.89415728	     -6.20402587	     -1.06117114	      0.94003621	      0.01192110	     -3.20017721	      6.23375401	     -4.65580358	     -8.79113524	     13.48504386	      0.42470592	     26.00744548	     -9.55428056	     -3.82886346	    -38.71220730	      7.37853019	      0.79211535	    -13.41131023	      1.04092476	      1.81471845
      3.21000000	     -1.65032652	     -1.94631711	     -6.26359721	     -1.06386738	      0.94009234	      0.01200867	     -2.96133382	      6.31001067	     -4.59619306	     -8.93438481	     13.38453916	      0.15878708	     25.70026334	     -9.52385561	     -3.60377100	    -40.03477211	      7.74548108	      0.68920858	    -13.32844018	      1.25327857	      1.65215514
      3.22000000	     -1.60641268	     -2.00920281	     -6.32387528	     -1.06643314	      0.94014124	      0.01207459	     -2.77334828	      6.39160479	     -4.56970354	     -9.06258889	     13.32524977	     -0.03146008	     25.32907714	     -9.52077351	     -3.48302118	    -41.32786682	      8.11171999	      0.62789162	    -13.27492432	      1.46480885	      1.52787170
      3.23000000	     -1.57135602	     -2.09139194	     -6.36216286	     -1.06889476	      0.94014121	      0.01210066	     -2.60764574	      6.49718109	     -4.55474309	     -9.14999112	     13.25345247	     -0.22276481	     24.94770688	     -9.54719778	     -3.42462288	    -42.59015564	      8.46090596	      0.55337768	    -13.20812807	      1.69398532	      1.39803892
      3.24000000	     -1.51893637	     -2.17888312	     -6.38602141	     -1.07124912	      0.94015034	      0.01210502	     -2.47899345	      6.60428539	     -4.58012051	     -9.21922625	     13.21327844	     -0.33926274	     24.51565014	     -9.59286352	     -3.44257046	    -43.79613853	      8.78476363	      0.51228986	    -13.15802823	      1.91703919	      1.29122483
      3.25000000	     -1.50571475	     -2.29083905	     -6.36641013	     -1.07352779	      0.94010343	      0.01205894	     -2.35671151	      6.75005223	     -4.55512125	     -9.21200732	     13.08936826	     -0.53894682	     24.10925752	     -9.65728923	     -3.45602441	    -44.94167699	      9.11870892	      0.37735814	    -13.05938592	      2.17246866	      1.11272738
      3.26000000	     -1.46620149	     -2.39547701	     -6.33727722	     -1.07571229	      0.94010534	      0.01200899	     -2.25985904	      6.87755646	     -4.60140666	     -9.22176021	     13.04445054	     -0.61987513	     23.63548611	     -9.72633098	     -3.53493235	    -45.99823422	      9.41294700	      0.31867289	    -12.98879203	      2.40309777	      0.97284140
      3.27000000	     -1.44421298	     -2.51331859	     -6.26300690	     -1.07781236	      0.94010902	      0.01188623	     -2.18199398	      7.02196832	     -4.63059979	     -9.17172321	     12.94120998	     -0.69888810	     23.15834526	     -9.79626620	     -3.60070096	    -46.96289771	      9.70751213	      0.22751168	    -12.89380416	      2.65527499	      0.78035348
      3.28000000	     -1.43147536	     -2.62743513	     -6.16121330	     -1.07983678	      0.94013425	      0.01172047	     -2.10944905	      7.16078988	     -4.67284373	     -9.10011298	     12.82901817	     -0.75013152	     22.66243312	     -9.85268085	     -3.66657825	    -47.81851833	      9.97774119	      0.12543587	    -12.78417521	      2.90170628	      0.56390791
      3.29000000	     -1.42981450	     -2.73475040	     -6.03736108	     -1.08179883	      0.94017968	      0.01151351	     -2.03539638	      7.28868715	     -4.72815932	     -9.01320078	     12.70789641	     -0.76635689	     22.15162784	     -9.89056897	     -3.72428177	    -48.55658069	     10.23172990	      0.02404383	    -12.65809954	      3.13564500	      0.32307729
      3.30000000	     -1.43985413	     -2.83284014	     -5.89230840	     -1.08369732	      0.94024674	      0.01125016	     -1.95349512	      7.40293893	     -4.79811593	     -8.92118398	     12.58069924	     -0.74465755	     21.62774329	     -9.90493946	     -3.77389858	    -49.16838365	     10.47705203	     -0.06657190	    -12.51485792	      3.36044725	      0.06459751
      3.31000000	     -1.46248195	     -2.91418952	     -5.73245658	     -1.08554630	      0.94033024	      0.01093482	     -1.85371688	      7.49549742	     -4.87850373	     -8.83732690	     12.45936928	     -0.69234861	     21.09559124	     -9.89003194	     -3.82342417	    -49.65096336	     10.71777155	     -0.12268503	    -12.35285464	      3.56339981	     -0.20339517
      3.32000000	     -1.49643739	     -2.98314330	     -5.56427542	     -1.08734190	      0.94043312	      0.01056899	     -1.74273151	      7.57086839	     -4.96729555	     -8.75448074	     12.33709127	     -0.60932712	     20.55251201	     -9.84661075	     -3.86291565	    -49.99462139	     10.95488367	     -0.15156046	    -12.17454166	      3.75085405	     -0.48659786
      3.33000000	     -1.52397755	     -3.04305673	     -5.37937810	     -1.08910954	      0.94056776	      0.01014119	     -1.64247475	      7.63191841	     -5.07509962	     -8.66402929	     12.21042415	     -0.44724856	     19.99780512	     -9.77949019	     -3.89337679	    -50.21729355	     11.17639935	     -0.15835593	    -12.00686903	      3.92336974	     -0.78750782
      3.34000000	     -1.59734126	     -3.07237329	     -5.21351196	     -1.09087818	      0.94065029	      0.00970018	     -1.47503561	      7.66145468	     -5.16316375	     -8.60094474	     12.10552666	     -0.37931589	     19.47207203	     -9.67560675	     -3.93748456	    -50.29634611	     11.46177360	     -0.10611619	    -11.78653460	      4.05496910	     -1.06075171
      3.35000000	     -1.67868668	     -3.09897633	     -5.03345473	     -1.09265657	      0.94072567	      0.00921927	     -1.30012332	      7.68832738	     -5.27748622	     -8.53140223	     11.99568532	     -0.29770937	     18.96158670	     -9.56132601	     -3.97286033	    -50.25781585	     11.74848608	     -0.03149372	    -11.56442008	      4.17608800	     -1.35777041
      3.36000000	     -1.76164997	     -3.12885668	     -4.83106819	     -1.09445413	      0.94079114	      0.00867397	     -1.12069702	      7.71733428	     -5.44943897	     -8.46201316	     11.89693060	     -0.15021144	     18.46838478	     -9.44378912	     -3.99782768	    -50.10922322	     12.03098469	      0.10437372	    -11.35026025	      4.29796195	     -1.69299483
      3.37000000	     -1.89672971	     -3.12793559	     -4.66631167	     -1.09630039	      0.94078009	      0.00817561	     -0.87301323	      7.71993466	     -5.55775989	     -8.40452067	     11.77135982	     -0.11531367	     18.02534628	     -9.30873388	     -4.07375326	    -49.82814900	     12.37785607	      0.20410404	    -11.08248031	      4.36878498	     -1.97492436
      3.38000000	     -2.04219582	     -3.13043409	     -4.47731204	     -1.09816203	      0.94073676	      0.00762366	     -0.60951056	      7.72653870	     -5.71543523	     -8.35161899	     11.65938046	     -0.08641229	     17.61265891	     -9.17981493	     -4.15460874	    -49.43562420	     12.75118626	      0.32528349	    -10.81128888	      4.43859964	     -2.29279981
      3.39000000	     -2.19885621	     -3.13405381	     -4.25041276	     -1.10001483	      0.94065244	      0.00699722	     -0.32389641	      7.73268907	     -5.95195687	     -8.31680258	     11.58693169	     -0.03769861	     17.23713647	     -9.05286526	     -4.23103700	    -48.93637593	     13.12565876	      0.52918884	    -10.52703425	      4.50614495	     -2.66496989
      3.40000000	     -2.36798299	     -3.11683515	     -4.06773014	     -1.10185087	      0.94057389	      0.00643951	     -0.03286008	      7.72061299	     -6.09061359	     -8.26650954	     11.44878794	     -0.05272817	     16.85438285	     -8.93085010	     -4.40012121	    -48.28664030	     13.53685726	      0.63244396	    -10.23420654	      4.52867300	     -2.97549509
      3.41000000	     -2.52965656	     -3.09185841	     -3.86515135	     -1.10362231	      0.94049923	      0.00583153	      0.25307362	      7.69645588	     -6.27376920	     -8.22927980	     11.34421048	     -0.07795312	     16.46798297	     -8.80573308	     -4.59555659	    -47.50952196	     13.96615754	      0.73403838	     -9.94304264	      4.53525618	     -3.31133818
      3.42000000	     -2.68151549	     -3.05443727	     -3.66101302	     -1.10532771	      0.94044624	      0.00519569	      0.52749253	      7.65512974	     -6.46513846	     -8.19771335	     11.24919434	     -0.11456913	     16.06634779	     -8.67734082	     -4.84057113	    -46.59876337	     14.39772101	      0.81723234	     -9.65770940	      4.51851155	     -3.64802895
